<svg width="32" height="32" viewBox="0 0 32 32" fill="none" xmlns="http://www.w3.org/2000/svg">
<path d="M16 0C12.8355 0 9.74207 0.938383 7.11088 2.69649C4.4797 4.45459 2.42894 6.95344 1.21793 9.87706C0.00693243 12.8007 -0.309921 16.0177 0.307443 19.1214C0.924806 22.2251 2.44866 25.0761 4.6863 27.3137C6.92394 29.5513 9.77486 31.0752 12.8786 31.6926C15.9823 32.3099 19.1993 31.9931 22.1229 30.7821C25.0466 29.5711 27.5454 27.5203 29.3035 24.8891C31.0616 22.2579 32 19.1645 32 16C31.995 11.7581 30.3077 7.69133 27.3082 4.69184C24.3087 1.69234 20.2419 0.005023 16 0ZM23.1934 13.1378L15.3243 21.0069C15.1833 21.1481 15.0158 21.26 14.8315 21.3365C14.6472 21.4129 14.4496 21.4522 14.2501 21.4522C14.0505 21.4522 13.8529 21.4129 13.6686 21.3365C13.4843 21.26 13.3168 21.1481 13.1758 21.0069L8.80665 16.6415C8.66483 16.5004 8.55218 16.3328 8.47514 16.1482C8.3981 15.9636 8.35818 15.7656 8.35765 15.5656C8.35712 15.3656 8.396 15.1674 8.47206 14.9824C8.54812 14.7973 8.65988 14.6291 8.80095 14.4873C8.94203 14.3455 9.10965 14.2328 9.29426 14.1558C9.47887 14.0788 9.67684 14.0388 9.87688 14.0383C10.0769 14.0378 10.2751 14.0767 10.4601 14.1527C10.6451 14.2288 10.8133 14.3405 10.9552 14.4816L14.2501 17.7765L21.0448 10.9817C21.3298 10.6968 21.7162 10.5368 22.1191 10.5368C22.522 10.5368 22.9084 10.6968 23.1934 10.9817C23.4783 11.2666 23.6383 11.6531 23.6383 12.056C23.6383 12.4589 23.4783 12.8453 23.1934 13.1302V13.1378Z" fill="#5CB85C"/>
</svg>
