<svg width="102" height="32" viewBox="0 0 102 32" fill="none" xmlns="http://www.w3.org/2000/svg">
<g clip-path="url(#clip0_725_1867)">
<path d="M67.008 0.45285H58.691L48.8646 14.6566H57.5438L60.3061 10.4302L62.857 31.3359H71.7929L67.008 0.45285Z" fill="white"/>
<path d="M42.8268 23.4113L37.3476 31.3359H46.6004L51.1438 24.4076L42.8268 23.4113Z" fill="white"/>
<path d="M94.2231 11.7434L101.589 7.80378C99.7476 3.07925 95.4004 0.0452881 89.1363 0.0452881C79.6721 0.0452881 73.0759 6.11321 70.8268 13.2076L72.9853 27.2151C75.5514 30.234 79.6117 31.9547 84.4872 31.9547C90.3136 31.9547 94.3438 29.5849 97.3325 26.2189L91.5967 21.1321C89.6193 23.1094 87.7023 24.2415 85.0306 24.2415C81.4834 24.2415 78.9023 21.8264 78.9023 17.9321C78.9023 12.5887 82.9778 7.80378 88.0646 7.80378C91.0684 7.80378 93.0004 9.25284 94.2231 11.7434Z" fill="white"/>
<path d="M40.2759 23.8943H27.9438L34.1627 0.664154H25.6193L17.3778 31.3359H35.1287L35.8533 30.2943L40.2759 23.8943Z" fill="white"/>
<path d="M0.155151 16.4679L18.8721 18.717L19.4759 16.4679H0.155151Z" fill="#FFCC00"/>
<path d="M31.808 16.4679L30.8268 20.1509L60.0797 23.6679L59.2042 16.4679H31.808Z" fill="#FFCC00"/>
</g>
<defs>
<clipPath id="clip0_725_1867">
<rect width="101.434" height="32" fill="white" transform="translate(0.155151)"/>
</clipPath>
</defs>
</svg>
