<svg xmlns:xlink="http://www.w3.org/1999/xlink" xmlns="http://www.w3.org/2000/svg" width="159" height="50" viewBox="0 0 159 50" fill="none">
<g clip-path="url(#clip0_82_454)">
<path d="M104.458 0.70755H91.4624L76.1086 22.9009H89.67L93.986 16.2972L97.9718 48.9623H111.934L104.458 0.70755Z" fill="#CC0000"/>
<path d="M66.6746 36.5802L58.1133 48.9623H72.5708L79.6699 38.1368L66.6746 36.5802Z" fill="#CC0000"/>
<path d="M146.981 18.3491L158.491 12.1934C155.613 4.81134 148.821 0.0707703 139.033 0.0707703C124.245 0.0707703 113.939 9.5519 110.425 20.6368L113.797 42.5236C117.807 47.2406 124.151 49.9293 131.769 49.9293C140.873 49.9293 147.17 46.2264 151.84 40.967L142.877 33.0189C139.788 36.1085 136.792 37.8774 132.618 37.8774C127.075 37.8774 123.042 34.1038 123.042 28.0189C123.042 19.6698 129.41 12.1934 137.359 12.1934C142.052 12.1934 145.071 14.4576 146.981 18.3491Z" fill="#CC0000"/>
<path d="M62.6887 37.3349H43.4198L53.1368 1.03775H39.7878L26.9104 48.9623H54.6462L55.7783 47.3349L62.6887 37.3349Z" fill="#CC0000"/>
<path d="M0 25.7311L29.2453 29.2453L30.1887 25.7311H0Z" fill="#FFCC00"/>
<path d="M49.4576 25.7311L47.9246 31.4859L93.6321 36.9811L92.2642 25.7311H49.4576Z" fill="#FFCC00"/>
</g>
<defs>
<clipPath id="clip0_82_454">
<rect width="158.491" height="50" fill="white"/>
</clipPath>
</defs>
</svg>